<svg xmlns="http://www.w3.org/2000/svg" viewBox="0 0 74 18" enable-background="new 0 0 74 18"><g fill="#3D3E3E"><path d="M57.6 15.2c-.5.5-.5 1.2 0 1.7s1.2.5 1.7 0L73.4 2.7c.5-.5.5-1.2 0-1.7s-1.2-.5-1.7 0L57.6 15.2zM71.7 16.9c.5.5 1.2.5 1.7 0s.5-1.2 0-1.7L59.2 1.1c-.5-.5-1.2-.5-1.7 0s-.5 1.2 0 1.7l14.2 14.1z"/></g><g fill="#3D3E3E"><path d="M4.8 14.9H3.5v-11h6.1V5H4.8v4h4.5v1.1H4.8v4.8zM14.7 15c-1.2 0-2.2-.4-2.9-1.1-.7-.7-1.1-1.8-1.1-3.1s.3-2.4 1-3.1c.6-.8 1.5-1.2 2.6-1.2 1 0 1.8.3 2.4 1 .6.7.9 1.6.9 2.7v.8H12c0 1 .3 1.7.7 2.2.5.5 1.1.7 1.9.7.9 0 1.8-.2 2.6-.6v1.1c-.4.2-.9.3-1.2.4s-.8.2-1.3.2zm-.4-7.4c-.7 0-1.2.2-1.6.6s-.6 1-.7 1.8h4.3c0-.8-.2-1.4-.5-1.8-.3-.4-.8-.6-1.5-.6zM23.1 15c-1.2 0-2.1-.4-2.8-1.1-.7-.7-1-1.8-1-3.1 0-1.4.3-2.4 1-3.2s1.6-1.1 2.8-1.1c.4 0 .8 0 1.2.1.4.1.7.2 1 .4l-.4 1c-.3-.1-.6-.2-.9-.3-.3-.1-.6-.1-.9-.1-1.7 0-2.5 1.1-2.5 3.2 0 1 .2 1.8.6 2.3.4.5 1 .8 1.8.8.7 0 1.4-.1 2.1-.4v1.1c-.5.3-1.2.4-2 .4zM32.7 14.9V9.6c0-.7-.2-1.2-.5-1.5-.3-.3-.8-.5-1.4-.5-.9 0-1.5.2-1.9.7-.4.5-.6 1.2-.6 2.3v4.3h-1.2V3.2h1.2v3.5c0 .4 0 .8-.1 1.1h.1c.2-.4.6-.7 1-.9.5-.2 1-.3 1.5-.3 1 0 1.8.2 2.3.7.5.5.8 1.2.8 2.3v5.3h-1.2zM41.5 14.9l-.2-1.2h-.1c-.4.5-.8.9-1.2 1-.4.2-.9.3-1.5.3-.8 0-1.4-.2-1.9-.6s-.7-1-.7-1.8c0-1.7 1.3-2.5 4-2.6h1.4v-.5c0-.6-.1-1.1-.4-1.4s-.7-.5-1.3-.5c-.7 0-1.5.2-2.3.6l-.4-.9c.4-.2.8-.4 1.3-.5.5-.1 1-.2 1.4-.2 1 0 1.7.2 2.2.7s.7 1.1.7 2.1V15h-1zm-2.8-.9c.8 0 1.4-.2 1.8-.6s.7-1 .7-1.8v-.7H40c-1 0-1.7.2-2.1.5-.4.3-.7.7-.7 1.3 0 .4.1.8.4 1 .3.2.6.3 1.1.3zM48.7 6.5c.4 0 .7 0 1 .1l-.2 1.2c-.3-.1-.6-.1-.9-.1-.7 0-1.2.3-1.7.8s-.7 1.2-.7 2v4.4H45V6.7h1l.1 1.5h.1c.3-.5.7-.9 1.1-1.2s.9-.5 1.4-.5z"/></g></svg>