<svg xmlns="http://www.w3.org/2000/svg" width="193.333" height="126.333"><linearGradient id="a" x1="123.061" x2="123.061" y1="39.539" y2="132.648" gradientUnits="userSpaceOnUse"><stop offset=".018" stop-color="#e61e26"/><stop offset=".16" stop-color="#e61e26"/><stop offset=".227" stop-color="#ac1217"/><stop offset=".583" stop-color="#ae271d"/><stop offset=".939" stop-color="#e61e26"/></linearGradient><path fill="url(#a)" d="M192.5 110.58c0 5.48-4.43 9.92-9.92 9.92H63.54c-5.48 0-9.92-4.44-9.92-9.92v-49c0-5.48 4.44-9.92 9.92-9.92h119.04c5.48 0 9.93 4.44 9.93 9.92v49z"/><radialGradient id="b" cx="80.581" cy="57.666" r="30.255" gradientUnits="userSpaceOnUse"><stop offset=".213" stop-color="#4b0000"/><stop offset=".939" stop-color="#af1318"/></radialGradient><path fill="url(#b)" d="M53.62 61.58v49c0 5.48 4.44 9.92 9.92 9.92h21.83c13.5-10.65 22.18-27.2 22.18-45.83 0-8.18-1.68-15.95-4.7-23h-39.3c-5.5 0-9.93 4.43-9.93 9.9z"/><linearGradient id="c" x1="123.061" x2="123.061" y1="51.101" y2="127.335" gradientUnits="userSpaceOnUse"><stop offset=".018" stop-color="#e61e26"/><stop offset=".16" stop-color="#e61e26"/><stop offset=".227" stop-color="#ac1217"/><stop offset=".583" stop-color="#ae271d"/><stop offset=".939" stop-color="#e61e26"/></linearGradient><path fill="url(#c)" d="M53.62 92.67v17.9c0 5.48 4.44 9.93 9.92 9.93h119.04c5.48 0 9.93-4.45 9.93-9.92v-17.9H53.63z"/><linearGradient id="d" x1="2.123" x2="85.687" y1="81.161" y2="81.161" gradientUnits="userSpaceOnUse"><stop offset=".018" stop-color="#b5b5b5"/><stop offset=".27" stop-color="#fafafa"/><stop offset=".54" stop-color="#4f4f4f"/><stop offset=".945" stop-color="#c7c7c7"/></linearGradient><path fill="url(#d)" d="M84.6 81.16c0 24.48-18.64 44.33-41.64 44.33S1.3 105.63 1.3 81.15c0-24.48 18.66-44.33 41.66-44.33 23 0 41.65 19.85 41.65 44.33z"/><circle cx="43.009" cy="83.932" r="41.238" fill="#D1D2D1"/><linearGradient id="e" x1="3.271" x2="84.581" y1="84.647" y2="84.647" gradientUnits="userSpaceOnUse"><stop offset=".018" stop-color="#e3e3e3"/><stop offset=".27" stop-color="#fafafa"/><stop offset=".54" stop-color="#8f8f8f"/><stop offset=".945" stop-color="#FFF"/></linearGradient><circle cx="43.009" cy="84.646" r="40.523" fill="url(#e)"/><linearGradient id="f" x1="43.008" x2="43.008" y1="55.86" y2="111.838" gradientUnits="userSpaceOnUse"><stop offset="0" stop-color="#3e0000"/><stop offset=".325"/><stop offset=".847" stop-color="#fbbea7"/><stop offset=".982" stop-color="#fee7dc"/></linearGradient><circle cx="43.009" cy="84.646" r="35.824" fill="url(#f)"/><linearGradient id="g" x1="43.008" x2="43.008" y1="44.074" y2="121.713" gradientUnits="userSpaceOnUse"><stop offset="0" stop-color="#c4161c"/><stop offset=".411" stop-color="#c4161c"/><stop offset=".847" stop-color="#fbbea7"/><stop offset=".982" stop-color="#fee7dc"/></linearGradient><circle cx="43.009" cy="84.646" r="34.394" fill="url(#g)"/><circle cx="43.009" cy="84.646" r="32.991" fill="#CE242B"/><circle cx="43.008" cy="83.445" r="26.18" fill="#EF4130"/><circle cx="43.009" cy="83.946" r="26.08" fill="#BA141A"/><circle cx="43.009" cy="83.946" r="26.08" fill="#BA141A"/><linearGradient id="h" x1="43.008" x2="43.008" y1="60.301" y2="108.579" gradientUnits="userSpaceOnUse"><stop offset="0" stop-color="#d1d3d4"/><stop offset=".497" stop-color="#bcbec0"/><stop offset=".982"/></linearGradient><circle cx="43.009" cy="83.946" r="25.078" fill="url(#h)"/><linearGradient id="i" x1="5.882" x2="82.478" y1="31.655" y2="139.536" gradientUnits="userSpaceOnUse"><stop offset="0" stop-color="#c4c6c8"/><stop offset=".301" stop-color="#d6d7d8"/><stop offset=".485" stop-color="#efeff0"/><stop offset=".982"/></linearGradient><circle cx="43.009" cy="83.946" r="24.076" fill="url(#i)"/><linearGradient id="j" x1="47.998" x2="15.664" y1="53.005" y2="-3.997" gradientUnits="userSpaceOnUse" gradientTransform="rotate(19.074 -102.895 91.675)"><stop offset="0" stop-color="#d1d3d4"/><stop offset=".497" stop-color="#bcbec0"/><stop offset=".982"/></linearGradient><path fill="url(#j)" d="M51.05 61.3c-8.9-3.1-18.38-.6-24.64 5.62 2.78.17 5.6.7 8.35 1.66 15.4 5.32 23.8 21.4 18.8 35.9-.14.37-.3.74-.43 1.1 5.75-2.6 10.46-7.48 12.7-13.92C70.1 79.2 63.5 65.6 51.04 61.3z"/><linearGradient id="k" x1="28.6" x2="69.611" y1="87.843" y2="75.047" gradientUnits="userSpaceOnUse"><stop offset="0" stop-color="#c4c6c8"/><stop offset=".485" stop-color="#efeff0"/><stop offset=".982" stop-color="#FFF"/></linearGradient><path fill="url(#k)" d="M57.48 68.17c-.8-.05-14.25 0-16.92 0-10.1 0-12.03 9.4-12.25 11.52s-.3 6.56-.4 8.8c-.07 9.33 9.5 9.5 9.5 9.5h11.74s4.4-.6 5.6-5.5c.05-.36.12-.76.17-1.13.12-.74-.4-1.37-1.32-1.37H41.4c-4.06 0-3.5-3.67-3.5-3.67l.66-6.17S38.9 76 44.4 76h7.42c2 0 4.97-1 5.66-7.83z"/><path fill="#CE242B" d="M55.88 69.75H41.25c-8.75 0-10.87 7.94-11.06 10s-.45 9.8-.45 9.8.25 6.95 7.63 6.95h12.25s1.04-.12 2.07-1.18c1.17-1.2 1.2-1.46 1.8-3.2.5-1-.8-1-.8-1H40.5c-4.62 0-4.12-3.62-4.12-3.62l.44-8.25s.56-4.56 5.5-4.63h9.37s2-.12 2.74-1.3 1.44-3.57 1.44-3.57z"/><path fill="#FFF" d="M22.5 64.7l-2.38-2.2-.66.72 2.4 2.2c.2-.25.43-.48.65-.72zm-7.76 19.45c0-.18 0-.37 0-.56H11.5v.96h3.25c0-.13 0-.26 0-.4zM18 70.95l-2.9-1.45-.43.87 2.9 1.46c.13-.3.28-.58.43-.87zM36.75 56.6l-.77-3.16-.95.24.77 3.14c.32-.08.63-.16.95-.23zM15.5 77.66l-3.17-.7-.2.97 3.15.68c.07-.32.14-.63.2-.95zm47.38-13.6l2.24-2.35-.7-.68-2.25 2.35c.24.2.48.44.7.67zm7.27 12.24l3.1-.95-.3-.93-3.08.95c.1.3.2.62.28.93zm-3-6.86l2.72-1.73-.52-.8-2.74 1.72c.2.27.37.55.54.83zM50.2 56.82l.78-3.14-.95-.23-.77 3.14c.3.07.63.14.95.22zm7.1 2.95l1.58-2.82-.85-.48-1.6 2.82c.3.14.58.3.86.47zM43 55.9c.17 0 .33 0 .5 0v-3.24h-1v3.24c.18 0 .34 0 .5 0zm-14.48 3.98l-1.7-2.75-.84.52 1.7 2.75c.28-.17.56-.35.84-.52zM68 97.35l2.9 1.46.43-.86-2.9-1.46c-.13.3-.28.58-.43.87zm-4.5 6.26l2.4 2.2.65-.72-2.4-2.2c-.2.26-.43.5-.66.73zm-6.02 4.83l1.7 2.75.84-.52-1.7-2.75c-.28.18-.56.36-.84.53zm-8.23 3.3l.77 3.14.95-.23-.77-3.15c-.3.07-.63.15-.95.22zM15.85 92l-3.1.96.3.93 3.1-.96c-.1-.3-.2-.62-.3-.93zm55.4-8.27c0 .14 0 .28 0 .42.02.2 0 .38 0 .56l3.25.02v-.98h-3.24zm-.74 6.9l3.18.7.2-.96-3.16-.68c-.06.3-.14.63-.2.94zm-51.64 8.24l-2.73 1.73.52.82 2.74-1.73c-.2-.28-.37-.55-.54-.83zm4.27 5.38l-2.24 2.34.7.67 2.23-2.35c-.24-.22-.47-.44-.7-.67zm12.67 7.24l-.77 3.13.94.24.78-3.15c-.32-.07-.64-.15-.95-.23zm-7.1-2.96l-1.58 2.83.86.48 1.58-2.82c-.3-.16-.57-.32-.85-.5zm14.3 3.88c-.16 0-.32 0-.5 0v3.23h1v-3.24c-.17 0-.34.02-.5.02z"/><path fill="#4D4E4E" d="M22.7 45.55a38.73 38.73 0 0 1 1.78-1V27.67s.96-16.17 19.25-16.17 17.7 15.1 17.7 15.1v17.9c.64.33 1.27.67 1.88 1.04A43.56 43.56 0 0 1 73.48 53V27.84S73.37 1.87 44.6.8h-1.45c-30.5 0-30.6 27.05-30.6 27.05v25.13a43.54 43.54 0 0 1 10.14-7.43z"/><path fill="#B3B4B3" d="M23.16 45.3v-19S24.43 9.45 43.7 9.45c19.3 0 18.82 15.12 18.82 15.12v20.47c3.42 1.72 6.58 3.96 9.4 6.5V24.72S68.8 1.66 43.7 1.66c-28.7 0-29.47 24.32-29.47 24.32v25.44c2.7-2.4 5.7-4.45 8.93-6.12z"/><path fill="#E6E6E5" d="M16.58 49.33v-22.9s1.25-23.98 26.5-23.98 26.18 22.58 26.18 22.58v24.14l-4.08-2.65v-21.5S63.15 7 42.92 7.16c-20.54.16-21.8 21.8-21.8 21.8v17.1l-4.54 3.28z"/><linearGradient id="l" x1="42.92" x2="42.92" y1="35.912" y2="9.477" gradientUnits="userSpaceOnUse"><stop offset=".018" stop-color="#b5b5b5"/><stop offset=".675" stop-color="#fafafa"/></linearGradient><path fill="url(#l)" d="M16.58 49.33v-22.9s1.25-23.98 26.5-23.98 26.18 22.58 26.18 22.58v24.14l-4.08-2.7V25.03S63.15 7 42.92 7.15c-20.54.16-21.8 21.8-21.8 21.8v17.1l-4.54 3.28z"/><linearGradient id="m" x1="18.279" x2="17.893" y1="61.835" y2="39.073" gradientUnits="userSpaceOnUse"><stop offset=".018" stop-color="#b5b5b5"/><stop offset=".27" stop-color="#fafafa"/><stop offset=".54" stop-color="#4f4f4f"/><stop offset=".945" stop-color="#c7c7c7"/></linearGradient><path fill="url(#m)" d="M19.2 47.17V29L16.6 49.33z"/><linearGradient id="n" x1="23.342" x2="21.793" y1="98.243" y2="6.725" gradientUnits="userSpaceOnUse"><stop offset=".018" stop-color="#b5b5b5"/><stop offset=".27" stop-color="#fafafa"/><stop offset=".54" stop-color="#2b2b2b"/><stop offset=".945" stop-color="#c7c7c7"/></linearGradient><path fill="url(#n)" d="M15.64 49.96V26.18c0-13.57 13.03-20.2 13.03-20.2s-11.62 7.5-11.62 19.88v23.22l-1.4.88z"/><path fill="#7D7D7D" d="M59.22 6.72s10.3 7.12 10.86 18.53c.24 4.9 0 24.62 0 24.62l-1.3-.87V25.03c0-10.64-9.56-18.3-9.56-18.3z"/><path fill="#4D4E4E" d="M12.54 52.98s5.7-5.5 11.94-8.44c-.1-.32-8.9 4.74-9.64 5.44-1.28 1.22-2.3 3-2.3 3zm60.93 0s-5.38-5.3-11.63-8.25c.1-.32 8.42 4.36 9.23 4.96 1.6 1.16 2.4 3.28 2.4 3.28z"/><path fill="#7D7D7D" d="M62.52 44.56s3.77 1.63 8.45 5.08c-2.75-1.74-8.5-4.68-8.5-4.68l.05-.4z"/><linearGradient id="o" x1="91.112" x2="103.779" y1="98.482" y2="98.482" gradientUnits="userSpaceOnUse"><stop offset="0" stop-color="#c4c6c8"/><stop offset=".442" stop-color="#d6d7d8"/><stop offset=".767" stop-color="#efeff0"/></linearGradient><path fill="url(#o)" d="M103.43 93.56l-3.14.86s-1.33-4.08-4.1-2.12c-1.93 1.36.37 3.45 1.44 3.78 7.32 1.84 6.25 6.3 5.83 7.83-1.72 4.64-6.23 3.83-7.3 3.75-3.88-.32-5.06-4.43-5.06-4.43l3.06-1.22s2.03 4.43 4.96 2.6c3.38-2.85-1.74-4.43-1.74-4.43s-5.7-1.4-5.7-6.12c0-2.35 2.17-5.75 8.28-4.6 3 .62 3.47 4.1 3.47 4.1z"/><linearGradient id="p" x1="112.139" x2="112.139" y1="106.526" y2="97.45" gradientUnits="userSpaceOnUse"><stop offset="0" stop-color="#c4c6c8"/><stop offset=".442" stop-color="#d6d7d8"/><stop offset=".767" stop-color="#efeff0"/></linearGradient><path fill="url(#p)" d="M117.5 92.75v-2.97h-10.73v17.9h10.74v-2.97H110v-4.7h5.6v-2.97H110v-4.28z"/><linearGradient id="q" x1="171.776" x2="171.776" y1="105.374" y2="84.776" gradientUnits="userSpaceOnUse"><stop offset="0" stop-color="#c4c6c8"/><stop offset=".442" stop-color="#d6d7d8"/><stop offset=".767" stop-color="#efeff0"/></linearGradient><path fill="url(#q)" d="M177.15 92.75v-2.97H166.4v17.9h10.75v-2.97h-7.5v-4.7h5.58v-2.97h-5.6v-4.28z"/><linearGradient id="r" x1="157.182" x2="157.182" y1="105.95" y2="91.827" gradientUnits="userSpaceOnUse"><stop offset="0" stop-color="#c4c6c8"/><stop offset=".442" stop-color="#d6d7d8"/><stop offset=".767" stop-color="#efeff0"/></linearGradient><path fill="url(#r)" d="M161.08 99.44c2.95-.9 4.67-9.65-2.9-9.65h-7.4v17.88H154v-7.7h2.7l2.85 7.7h3.84l-3-8.08c.25-.05.48-.1.68-.16zm-2.96-6.7c2.4 0 2.92 4.3-.04 4.3-2.04 0-3.4 0-4.07.03v-4.32h4.12z"/><linearGradient id="s" x1="125.996" x2="125.996" y1="106.526" y2="90.571" gradientUnits="userSpaceOnUse"><stop offset="0" stop-color="#c4c6c8"/><stop offset=".442" stop-color="#d6d7d8"/><stop offset=".767" stop-color="#efeff0"/></linearGradient><path fill="url(#s)" d="M132.58 96.17h-3.8s.17-2.67-1.3-3.74c-1.02-.65-2.4-.5-3.23.32s-1.42 2.66-1.33 6.58c.08 3.92 1.4 4.83 1.4 4.83s2 1.1 3.35 0c1.33-1.08 1.58-3.16 1.58-3.16h3.25s-.58 4.67-3.33 6.17-5.92.52-7.17-.67-2.5-3.84-2.58-7.34c-.1-3.5.34-7.44 3.38-9.4 2.22-1.45 5.27-1.5 7.6.32s2.18 6.1 2.18 6.1z"/><linearGradient id="t" x1="141.413" x2="141.413" y1="106.958" y2="95.287" gradientUnits="userSpaceOnUse"><stop offset="0" stop-color="#c4c6c8"/><stop offset=".442" stop-color="#d6d7d8"/><stop offset=".767" stop-color="#efeff0"/></linearGradient><path fill="url(#t)" d="M143.98 89.62v12.75a2.56 2.56 0 0 1-5.13 0V89.62h-3.64v12.4c0 3.3 2.8 5.98 6.2 5.98s6.2-2.68 6.2-5.98v-12.4H144z"/><path fill="#FFF" d="M184.12 70.25c-3.24-4.35-9.53-2.5-11.5.2-1.4 1.9-3.27 5.7-.33 9.13 1.66 1.85 6.58 3.26 10.35-.13 4.3-3.87 2.36-8.18 1.47-9.2zm-1.82 6.58c-1.45 2.76-4.45 4.04-6.7 2.85-2.27-1.2-2.92-4.4-1.47-7.15 1.45-2.76 4.45-4.04 6.7-2.85 2.27 1.18 2.92 4.4 1.47 7.15zm-30.38-6.58c-3.24-4.35-9.52-2.5-11.5.2-1.4 1.9-3.27 5.7-.33 9.13 1.66 1.85 6.58 3.26 10.35-.13 4.3-3.87 2.36-8.18 1.47-9.2zm-1.82 6.58c-1.45 2.76-4.45 4.04-6.7 2.85-2.27-1.2-2.92-4.4-1.47-7.15 1.45-2.76 4.45-4.04 6.7-2.85 2.27 1.18 2.92 4.4 1.47 7.15zm-34.74-6.58c-3.24-4.35-9.52-2.5-11.5.2-1.4 1.9-3.26 5.7-.32 9.13 1.66 1.85 6.58 3.26 10.35-.13 4.3-3.87 2.36-8.18 1.46-9.2zm-1.8 6.58c-1.47 2.76-4.47 4.04-6.73 2.85-2.26-1.2-2.9-4.4-1.46-7.15 1.45-2.76 4.46-4.04 6.7-2.85 2.27 1.18 2.93 4.4 1.48 7.15zm49.08-8.56l-5.8-.06-.2 1.6h5.62s3.96-.32 3.64 4.4c-.57 5.13-4.4 4.87-4.4 4.87h-3.08l.96-7.48h-2.93l-1 8.96h5.8s7.56.24 7.63-7.52c.1-4.68-6.24-4.77-6.24-4.77zm-43.32 12.3L120.94 68h2.1l4.33 7.04 6.28-6.77h2.1l-1.3 11.7s-.53.9-1.56.9h-1.3l1.22-8.13-5.62 6.4-4.6-8-1.28 9.34-2 .08zm-24.53-1.6s-3.97.32-3.65-4.4c.57-5.13 4.4-4.87 4.4-4.87h3.48c.95 0 1.54-1.06 1.75-1.5h-5s-7.54-.23-7.6 7.53c-.1 4.68 6.22 4.77 6.22 4.77h3.93s1.14-.2 1.3-1.53c-.1 0-4.84 0-4.84 0z"/></svg>