<svg xmlns="http://www.w3.org/2000/svg" width="210" height="25" viewBox="-5 0 210 25" enable-background="new -5 0 210 25"><path fill="#717F89" d="M24.7 3.78C23.45 2.5 21.76 1.8 19.96 1.8c-1.8 0-3.5.7-4.78 1.98l-.66.67-.67-.68C12.56 2.5 10.86 1.8 9.05 1.8c-1.8 0-3.5.7-4.76 1.97C3 5.04 2.3 6.72 2.3 8.54c0 1.8.7 3.5 1.98 4.76L14 23c.14.14.32.2.5.2.17 0 .35-.06.48-.2l9.72-9.68c1.28-1.27 1.98-2.97 1.98-4.77 0-1.8-.7-3.5-1.97-4.77zm-.98 8.56l-9.23 9.2-9.21-9.22c-1.03-1-1.58-2.35-1.58-3.8 0-1.4.55-2.76 1.56-3.76 1-1 2.35-1.57 3.77-1.57 1.44 0 2.78.55 3.8 1.56L14 5.93c.3.27.73.27 1 0l1.16-1.16c1-1 2.35-1.57 3.78-1.57 1.43 0 2.77.56 3.78 1.57 1 1 1.56 2.35 1.56 3.78 0 1.43-.55 2.77-1.56 3.8z"/><text fill="#717E89" transform="translate(30.173 16.508)" font-family="'Arial'" font-size="12">Adicione na Lista de Desejos</text></svg>